<svg width="2140" height="1334" version="1.1" xmlns="http://www.w3.org/2000/svg" id="Tree_1" xmlns:xlink="http://www.w3.org/1999/xlink"><g transform="translate(383.3648702053629,104.71446091555686) scale(1.3928809012737993)"><path class="link" id="Tree_1_node_1462_Tree_1_node_1458" d="M869.0012968305705,654.2291666666665L869.0012968305705,646.5520833333333L1082.198770824096,646.5520833333333" style="stroke-width: 3; stroke: grey; fill: none;"/><path class="link" id="Tree_1_node_1462_Tree_1_node_1461" d="M869.0012968305705,654.2291666666665L869.0012968305705,661.9062499999999L912.7952629681316,661.9062499999999" style="stroke-width: 3; stroke: grey; fill: none;"/><path class="link" id="Tree_1_node_1463_Tree_1_node_1457" d="M847.2169112339894,642.7135416666665L847.2169112339894,631.1979166666666L907.2404282220796,631.1979166666666" style="stroke-width: 3; stroke: grey; fill: none;"/><path class="link" id="Tree_1_node_1463_Tree_1_node_1462" d="M847.2169112339894,642.7135416666665L847.2169112339894,654.2291666666665L869.0012968305705,654.2291666666665" style="stroke-width: 3; stroke: grey; fill: none;"/><path class="link" id="Tree_1_node_1455_Tree_1_node_1443" d="M846.6246545981132,608.1666666666667L846.6246545981132,600.4895833333334L984.7267695056144,600.4895833333334" style="stroke-width: 3; stroke: grey; fill: none;"/><path class="link" id="Tree_1_node_1455_Tree_1_node_1454" d="M846.6246545981132,608.1666666666667L846.6246545981132,615.84375L866.0430311114276,615.84375" style="stroke-width: 3; stroke: grey; fill: none;"/><path class="link" id="Tree_1_node_1442_Tree_1_node_1440" d="M866.6556396980749,577.4583333333333L866.6556396980749,569.78125L876.0963033553966,569.78125" style="stroke-width: 3; stroke: grey; fill: none;"/><path class="link" id="Tree_1_node_1442_Tree_1_node_1441" d="M866.6556396980749,577.4583333333333L866.6556396980749,585.1354166666666L870.8704267317211,585.1354166666666" style="stroke-width: 3; stroke: grey; fill: none;"/><path class="link" id="Tree_1_node_1456_Tree_1_node_1442" d="M810.1604946724422,592.8125L810.1604946724422,577.4583333333333L866.6556396980749,577.4583333333333" style="stroke-width: 3; stroke: grey; fill: none;"/><path class="link" id="Tree_1_node_1456_Tree_1_node_1455" d="M810.1604946724422,592.8125L810.1604946724422,608.1666666666667L846.6246545981132,608.1666666666667" style="stroke-width: 3; stroke: grey; fill: none;"/><path class="link" id="Tree_1_node_1464_Tree_1_node_1456" d="M786.5928640875866,617.7630208333333L786.5928640875866,592.8125L810.1604946724422,592.8125" style="stroke-width: 3; stroke: grey; fill: none;"/><path class="link" id="Tree_1_node_1464_Tree_1_node_1463" d="M786.5928640875866,617.7630208333333L786.5928640875866,642.7135416666665L847.2169112339894,642.7135416666665" style="stroke-width: 3; stroke: grey; fill: none;"/><path class="link" id="Tree_1_node_1438_Tree_1_node_1436" d="M683.5766180692923,546.75L683.5766180692923,539.0729166666667L683.5773695695095,539.0729166666667" style="stroke-width: 3; stroke: grey; fill: none;"/><path class="link" id="Tree_1_node_1438_Tree_1_node_1437" d="M683.5766180692923,546.75L683.5766180692923,554.4270833333334L683.5773695695095,554.4270833333334" style="stroke-width: 3; stroke: grey; fill: none;"/><path class="link" id="Tree_1_node_1435_Tree_1_node_1433" d="M641.8137695894211,516.0416666666666L641.8137695894211,508.3645833333333L641.8145210896383,508.3645833333333" style="stroke-width: 3; stroke: grey; fill: none;"/><path class="link" id="Tree_1_node_1435_Tree_1_node_1434" d="M641.8137695894211,516.0416666666666L641.8137695894211,523.71875L641.8145210896383,523.71875" style="stroke-width: 3; stroke: grey; fill: none;"/><path class="link" id="Tree_1_node_1439_Tree_1_node_1435" d="M601.9192756779294,531.3958333333333L601.9192756779294,516.0416666666666L641.8137695894211,516.0416666666666" style="stroke-width: 3; stroke: grey; fill: none;"/><path class="link" id="Tree_1_node_1439_Tree_1_node_1438" d="M601.9192756779294,531.3958333333333L601.9192756779294,546.75L683.5766180692923,546.75" style="stroke-width: 3; stroke: grey; fill: none;"/><path class="link" id="Tree_1_node_1465_Tree_1_node_1439" d="M515.025957163823,574.5794270833333L515.025957163823,531.3958333333333L601.9192756779294,531.3958333333333" style="stroke-width: 3; stroke: grey; fill: none;"/><path class="link" id="Tree_1_node_1465_Tree_1_node_1464" d="M515.025957163823,574.5794270833333L515.025957163823,617.7630208333333L786.5928640875866,617.7630208333333" style="stroke-width: 3; stroke: grey; fill: none;"/><path class="link" id="Tree_1_node_1429_Tree_1_node_1427" d="M1188.8499134357332,485.33333333333326L1188.8499134357332,477.65624999999994L1218.2236404350385,477.65624999999994" style="stroke-width: 3; stroke: grey; fill: none;"/><path class="link" id="Tree_1_node_1429_Tree_1_node_1428" d="M1188.8499134357332,485.33333333333326L1188.8499134357332,493.01041666666663L1208.893296150436,493.01041666666663" style="stroke-width: 3; stroke: grey; fill: none;"/><path class="link" id="Tree_1_node_1430_Tree_1_node_1426" d="M808.0763049311738,473.81770833333326L808.0763049311738,462.30208333333326L983.3680982188814,462.30208333333326" style="stroke-width: 3; stroke: grey; fill: none;"/><path class="link" id="Tree_1_node_1430_Tree_1_node_1429" d="M808.0763049311738,473.81770833333326L808.0763049311738,485.33333333333326L1188.8499134357332,485.33333333333326" style="stroke-width: 3; stroke: grey; fill: none;"/><path class="link" id="Tree_1_node_1425_Tree_1_node_1423" d="M971.1969254389733,439.27083333333326L971.1969254389733,431.59374999999994L971.1976769391904,431.59374999999994" style="stroke-width: 3; stroke: grey; fill: none;"/><path class="link" id="Tree_1_node_1425_Tree_1_node_1424" d="M971.1969254389733,439.27083333333326L971.1969254389733,446.94791666666663L971.1976769391904,446.94791666666663" style="stroke-width: 3; stroke: grey; fill: none;"/><path class="link" id="Tree_1_node_1431_Tree_1_node_1425" d="M726.1692661731583,456.54427083333326L726.1692661731583,439.27083333333326L971.1969254389733,439.27083333333326" style="stroke-width: 3; stroke: grey; fill: none;"/><path class="link" id="Tree_1_node_1431_Tree_1_node_1430" d="M726.1692661731583,456.54427083333326L726.1692661731583,473.81770833333326L808.0763049311738,473.81770833333326" style="stroke-width: 3; stroke: grey; fill: none;"/><path class="link" id="Tree_1_node_1420_Tree_1_node_1418" d="M1256.2276078922866,408.5625L1256.2276078922866,400.8854166666667L1271.057596641215,400.8854166666667" style="stroke-width: 3; stroke: grey; fill: none;"/><path class="link" id="Tree_1_node_1420_Tree_1_node_1419" d="M1256.2276078922866,408.5625L1256.2276078922866,416.23958333333337L1262.7957614882152,416.23958333333337" style="stroke-width: 3; stroke: grey; fill: none;"/><path class="link" id="Tree_1_node_1417_Tree_1_node_225" d="M905.6460099697842,273.14583333333337L905.6460099697842,228.58333333333334L980.7955617492669,228.58333333333334" style="stroke-width: 3; stroke: grey; fill: none;"/><path class="link" id="Tree_1_node_1417_Tree_1_node_1416" d="M905.6460099697842,273.14583333333337L905.6460099697842,317.70833333333337L973.7987513445275,317.70833333333337" style="stroke-width: 3; stroke: grey; fill: none;"/><path class="link" id="Tree_1_node_1421_Tree_1_node_1417" d="M851.0606567043708,340.8541666666667L851.0606567043708,273.14583333333337L905.6460099697842,273.14583333333337" style="stroke-width: 3; stroke: grey; fill: none;"/><path class="link" id="Tree_1_node_1421_Tree_1_node_1420" d="M851.0606567043708,340.8541666666667L851.0606567043708,408.5625L1256.2276078922866,408.5625" style="stroke-width: 3; stroke: grey; fill: none;"/><path class="link" id="Tree_1_node_24_Tree_1_node_22" d="M1338.6881024737024,199.60416666666669L1338.6881024737024,191.92708333333334L1346.84692465492,191.92708333333334" style="stroke-width: 3; stroke: grey; fill: none;"/><path class="link" id="Tree_1_node_24_Tree_1_node_23" d="M1338.6881024737024,199.60416666666669L1338.6881024737024,207.28125L1354.0153989589692,207.28125" style="stroke-width: 3; stroke: grey; fill: none;"/><path class="link" id="Tree_1_node_1422_Tree_1_node_24" d="M786.4953281489878,270.2291666666667L786.4953281489878,199.60416666666669L1338.6881024737024,199.60416666666669" style="stroke-width: 3; stroke: grey; fill: none;"/><path class="link" id="Tree_1_node_1422_Tree_1_node_1421" d="M786.4953281489878,270.2291666666667L786.4953281489878,340.8541666666667L851.0606567043708,340.8541666666667" style="stroke-width: 3; stroke: grey; fill: none;"/><path class="link" id="Tree_1_node_1432_Tree_1_node_1422" d="M473.5583279601773,363.38671875L473.5583279601773,270.2291666666667L786.4953281489878,270.2291666666667" style="stroke-width: 3; stroke: grey; fill: none;"/><path class="link" id="Tree_1_node_1432_Tree_1_node_1431" d="M473.5583279601773,363.38671875L473.5583279601773,456.54427083333326L726.1692661731583,456.54427083333326" style="stroke-width: 3; stroke: grey; fill: none;"/><path class="link" id="Tree_1_node_1466_Tree_1_node_1432" d="M341.37680365457436,468.98307291666663L341.37680365457436,363.38671875L473.5583279601773,363.38671875" style="stroke-width: 3; stroke: grey; fill: none;"/><path class="link" id="Tree_1_node_1466_Tree_1_node_1465" d="M341.37680365457436,468.98307291666663L341.37680365457436,574.5794270833333L515.025957163823,574.5794270833333" style="stroke-width: 3; stroke: grey; fill: none;"/><path class="link" id="Tree_1_node_18_Tree_1_node_16" d="M378.9846160903264,168.89583333333331L378.9846160903264,161.21875L382.4077653028206,161.21875" style="stroke-width: 3; stroke: grey; fill: none;"/><path class="link" id="Tree_1_node_18_Tree_1_node_17" d="M378.9846160903264,168.89583333333331L378.9846160903264,176.57291666666666L378.98536759054366,176.57291666666666" style="stroke-width: 3; stroke: grey; fill: none;"/><path class="link" id="Tree_1_node_19_Tree_1_node_15" d="M296.61318820221334,157.38020833333331L296.61318820221334,145.86458333333334L409.5853480393378,145.86458333333334" style="stroke-width: 3; stroke: grey; fill: none;"/><path class="link" id="Tree_1_node_19_Tree_1_node_18" d="M296.61318820221334,157.38020833333331L296.61318820221334,168.89583333333331L378.9846160903264,168.89583333333331" style="stroke-width: 3; stroke: grey; fill: none;"/><path class="link" id="Tree_1_node_14_Tree_1_node_12" d="M288.33065595987284,122.83333333333331L288.33065595987284,115.15624999999999L352.2218210579507,115.15624999999999" style="stroke-width: 3; stroke: grey; fill: none;"/><path class="link" id="Tree_1_node_14_Tree_1_node_13" d="M288.33065595987284,122.83333333333331L288.33065595987284,130.51041666666666L313.7927685530053,130.51041666666666" style="stroke-width: 3; stroke: grey; fill: none;"/><path class="link" id="Tree_1_node_20_Tree_1_node_14" d="M251.48362633174378,140.10677083333331L251.48362633174378,122.83333333333331L288.33065595987284,122.83333333333331" style="stroke-width: 3; stroke: grey; fill: none;"/><path class="link" id="Tree_1_node_20_Tree_1_node_19" d="M251.48362633174378,140.10677083333331L251.48362633174378,157.38020833333331L296.61318820221334,157.38020833333331" style="stroke-width: 3; stroke: grey; fill: none;"/><path class="link" id="Tree_1_node_10_Tree_1_node_8" d="M398.0966497135813,92.125L398.0966497135813,84.44791666666666L436.88902095838114,84.44791666666666" style="stroke-width: 3; stroke: grey; fill: none;"/><path class="link" id="Tree_1_node_10_Tree_1_node_9" d="M398.0966497135813,92.125L398.0966497135813,99.80208333333333L412.1406635455013,99.80208333333333" style="stroke-width: 3; stroke: grey; fill: none;"/><path class="link" id="Tree_1_node_6_Tree_1_node_4" d="M358.46081820809746,61.41666666666667L358.46081820809746,53.739583333333336L377.4733181908393,53.739583333333336" style="stroke-width: 3; stroke: grey; fill: none;"/><path class="link" id="Tree_1_node_6_Tree_1_node_5" d="M358.46081820809746,61.41666666666667L358.46081820809746,69.09375L365.4604490910626,69.09375" style="stroke-width: 3; stroke: grey; fill: none;"/><path class="link" id="Tree_1_node_7_Tree_1_node_3" d="M333.36382316481655,49.90104166666667L333.36382316481655,38.385416666666664L451.45576986432184,38.385416666666664" style="stroke-width: 3; stroke: grey; fill: none;"/><path class="link" id="Tree_1_node_7_Tree_1_node_6" d="M333.36382316481655,49.90104166666667L333.36382316481655,61.41666666666667L358.46081820809746,61.41666666666667" style="stroke-width: 3; stroke: grey; fill: none;"/><path class="link" id="Tree_1_node_11_Tree_1_node_7" d="M298.4298054274837,71.01302083333334L298.4298054274837,49.90104166666667L333.36382316481655,49.90104166666667" style="stroke-width: 3; stroke: grey; fill: none;"/><path class="link" id="Tree_1_node_11_Tree_1_node_10" d="M298.4298054274837,71.01302083333334L298.4298054274837,92.125L398.0966497135813,92.125" style="stroke-width: 3; stroke: grey; fill: none;"/><path class="link" id="Tree_1_node_21_Tree_1_node_11" d="M226.47425542780718,105.55989583333333L226.47425542780718,71.01302083333334L298.4298054274837,71.01302083333334" style="stroke-width: 3; stroke: grey; fill: none;"/><path class="link" id="Tree_1_node_21_Tree_1_node_20" d="M226.47425542780718,105.55989583333333L226.47425542780718,140.10677083333331L251.48362633174378,140.10677083333331" style="stroke-width: 3; stroke: grey; fill: none;"/><path class="link" id="Tree_1_node_1467_Tree_1_node_21" d="M195.14118319944095,287.271484375L195.14118319944095,105.55989583333333L226.47425542780718,105.55989583333333" style="stroke-width: 3; stroke: grey; fill: none;"/><path class="link" id="Tree_1_node_1467_Tree_1_node_1466" d="M195.14118319944095,287.271484375L195.14118319944095,468.98307291666663L341.37680365457436,468.98307291666663" style="stroke-width: 3; stroke: grey; fill: none;"/><path class="link" id="Tree_1_node_2_Tree_1_node_0" d="M298.6527463930019,15.354166666666668L298.6527463930019,7.677083333333333L315.4049305161727,7.677083333333333" style="stroke-width: 3; stroke: grey; fill: none;"/><path class="link" id="Tree_1_node_2_Tree_1_node_1" d="M298.6527463930019,15.354166666666668L298.6527463930019,23.03125L303.986209018346,23.03125" style="stroke-width: 3; stroke: grey; fill: none;"/><path class="link" id="Tree_1_node_1468_Tree_1_node_2" d="M160.21221013189896,151.31282552083331L160.21221013189896,15.354166666666668L298.6527463930019,15.354166666666668" style="stroke-width: 3; stroke: grey; fill: none;"/><path class="link" id="Tree_1_node_1468_Tree_1_node_1467" d="M160.21221013189896,151.31282552083331L160.21221013189896,287.271484375L195.14118319944095,287.271484375" style="stroke-width: 3; stroke: grey; fill: none;"/><path class="link" id="Tree_1_node_1471_Tree_1_node_1468" d="M-90,421.9637044270833L-90,151.31282552083331L160.21221013189896,151.31282552083331" style="stroke-width: 3; stroke: grey; fill: none;"/><path class="link" id="Tree_1_node_1471_Tree_1_node_1469" d="M-90,421.9637044270833L-90,677.2604166666666L-76.1753770644259,677.2604166666666" style="stroke-width: 3; stroke: grey; fill: none;"/><path class="link" id="Tree_1_node_1471_Tree_1_node_1470" d="M-90,421.9637044270833L-90,692.6145833333333L-78.35058601421635,692.6145833333333" style="stroke-width: 3; stroke: grey; fill: none;"/><g class="node" transform="translate(-78.3505859375,692.6145629882812)" id="Tree_1_node_1470"><circle class="node" r="3"/><rect class="node" y="-3px" x="-3px" width="0px" height="0px"/><text class="node" x="13" dy=".3em" dx="-.3em" text-anchor="start" font-size="14px" style="fill-opacity: 1;">ARATH00549</text><text class="triangleText" dy=".35em" font-size="14px"/><path class="triangle" d="M0,0L0,0L0,0L0,0"/></g><g class="node" transform="translate(-76.17537689208984,677.2604370117188)" id="Tree_1_node_1469"><circle class="node" r="3"/><rect class="node" y="-3px" x="-3px" width="0px" height="0px"/><text class="node" x="13" dy=".3em" dx="-.3em" text-anchor="start" font-size="14px" style="fill-opacity: 1;">ARALY22584</text><text class="triangleText" dy=".35em" font-size="14px"/><path class="triangle" d="M0,0L0,0L0,0L0,0"/></g><g class="node" transform="translate(912.7952880859375,661.90625)" id="Tree_1_node_1461"><circle class="node" r="3"/><rect class="node" y="-3px" x="-3px" width="0px" height="0px"/><text class="node" x="-13" dy="-.3em" dx=".3em" text-anchor="end" font-size="14px" style="fill-opacity: 1;"/><text class="triangleText" dy=".35em" font-size="14px" x="26.897734568997862">SORBI01504 ... SORBI01242</text><path class="triangle" d="M0,0L21.897734568997862,-0.25L21.897734568997862,0.25L0,0"/></g><g class="node" transform="translate(1082.19873046875,646.5520629882812)" id="Tree_1_node_1458"><circle class="node" r="3"/><rect class="node" y="-3px" x="-3px" width="0px" height="0px"/><text class="node" x="13" dy=".3em" dx="-.3em" text-anchor="start" font-size="14px" style="fill-opacity: 1;">MAIZE47396</text><text class="triangleText" dy=".35em" font-size="14px"/><path class="triangle" d="M0,0L0,0L0,0L0,0"/></g><g class="node" transform="translate(869.0012817382812,654.2291870117188)" id="Tree_1_node_1462"><circle class="node" r="3"/><rect class="node" y="-3px" x="-3px" width="0px" height="0px"/><text class="node" x="-13" dy="-.3em" dx=".3em" text-anchor="end" font-size="14px" style="fill-opacity: 1;"/><text class="triangleText" dy=".35em" font-size="14px" x="0"/><path class="triangle" d="M0,0L0,0L0,0L0,0"/></g><g class="node" transform="translate(907.2404174804688,631.1979370117188)" id="Tree_1_node_1457"><circle class="node" r="3"/><rect class="node" y="-3px" x="-3px" width="0px" height="0px"/><text class="node" x="13" dy=".3em" dx="-.3em" text-anchor="start" font-size="14px" style="fill-opacity: 1;">SETIT25858</text><text class="triangleText" dy=".35em" font-size="14px"/><path class="triangle" d="M0,0L0,0L0,0L0,0"/></g><g class="node" transform="translate(847.2169189453125,642.7135620117188)" id="Tree_1_node_1463"><circle class="node" r="3"/><rect class="node" y="-3px" x="-3px" width="0px" height="0px"/><text class="node" x="-13" dy="-.3em" dx=".3em" text-anchor="end" font-size="14px" style="fill-opacity: 1;"/><text class="triangleText" dy=".35em" font-size="14px" x="0"/><path class="triangle" d="M0,0L0,0L0,0L0,0"/></g><g class="node" transform="translate(866.0430297851562,615.84375)" id="Tree_1_node_1454"><circle class="node" r="3"/><rect class="node" y="-3px" x="-3px" width="0px" height="0px"/><text class="node" x="-13" dy="-.3em" dx=".3em" text-anchor="end" font-size="14px" style="fill-opacity: 1;"/><text class="triangleText" dy=".35em" font-size="14px" x="42.223580748706404">TRIUA31870 ... WHEAT86670</text><path class="triangle" d="M0,0L37.223580748706404,-0.75L37.223580748706404,0.75L0,0"/></g><g class="node" transform="translate(984.7267456054688,600.4895629882812)" id="Tree_1_node_1443"><circle class="node" r="3"/><rect class="node" y="-3px" x="-3px" width="0px" height="0px"/><text class="node" x="13" dy=".3em" dx="-.3em" text-anchor="start" font-size="14px" style="fill-opacity: 1;">BRADI26138</text><text class="triangleText" dy=".35em" font-size="14px"/><path class="triangle" d="M0,0L0,0L0,0L0,0"/></g><g class="node" transform="translate(846.6246337890625,608.1666870117188)" id="Tree_1_node_1455"><circle class="node" r="3"/><rect class="node" y="-3px" x="-3px" width="0px" height="0px"/><text class="node" x="-13" dy="-.3em" dx=".3em" text-anchor="end" font-size="14px" style="fill-opacity: 1;"/><text class="triangleText" dy=".35em" font-size="14px" x="0"/><path class="triangle" d="M0,0L0,0L0,0L0,0"/></g><g class="node" transform="translate(870.8704223632812,585.1354370117188)" id="Tree_1_node_1441"><circle class="node" r="3"/><rect class="node" y="-3px" x="-3px" width="0px" height="0px"/><text class="node" x="13" dy=".3em" dx="-.3em" text-anchor="start" font-size="14px" style="fill-opacity: 1;">ORYSI23267</text><text class="triangleText" dy=".35em" font-size="14px"/><path class="triangle" d="M0,0L0,0L0,0L0,0"/></g><g class="node" transform="translate(876.0963134765625,569.78125)" id="Tree_1_node_1440"><circle class="node" r="3"/><rect class="node" y="-3px" x="-3px" width="0px" height="0px"/><text class="node" x="13" dy=".3em" dx="-.3em" text-anchor="start" font-size="14px" style="fill-opacity: 1;">ORYSI23756</text><text class="triangleText" dy=".35em" font-size="14px"/><path class="triangle" d="M0,0L0,0L0,0L0,0"/></g><g class="node" transform="translate(866.6556396484375,577.4583129882812)" id="Tree_1_node_1442"><circle class="node" r="3"/><rect class="node" y="-3px" x="-3px" width="0px" height="0px"/><text class="node" x="-13" dy="-.3em" dx=".3em" text-anchor="end" font-size="14px" style="fill-opacity: 1;"/><text class="triangleText" dy=".35em" font-size="14px" x="0"/><path class="triangle" d="M0,0L0,0L0,0L0,0"/></g><g class="node" transform="translate(810.1605224609375,592.8125)" id="Tree_1_node_1456"><circle class="node" r="3"/><rect class="node" y="-3px" x="-3px" width="0px" height="0px"/><text class="node" x="-13" dy="-.3em" dx=".3em" text-anchor="end" font-size="14px" style="fill-opacity: 1;"/><text class="triangleText" dy=".35em" font-size="14px" x="0"/><path class="triangle" d="M0,0L0,0L0,0L0,0"/></g><g class="node" transform="translate(786.5928344726562,617.7630004882812)" id="Tree_1_node_1464"><circle class="node" r="3"/><rect class="node" y="-3px" x="-3px" width="0px" height="0px"/><text class="node" x="-13" dy="-.3em" dx=".3em" text-anchor="end" font-size="14px" style="fill-opacity: 1;"/><text class="triangleText" dy=".35em" font-size="14px" x="0"/><path class="triangle" d="M0,0L0,0L0,0L0,0"/></g><g class="node" transform="translate(683.577392578125,554.4270629882812)" id="Tree_1_node_1437"><circle class="node" r="3"/><rect class="node" y="-3px" x="-3px" width="0px" height="0px"/><text class="node" x="13" dy=".3em" dx="-.3em" text-anchor="start" font-size="14px" style="fill-opacity: 1;">MUSAC28290</text><text class="triangleText" dy=".35em" font-size="14px"/><path class="triangle" d="M0,0L0,0L0,0L0,0"/></g><g class="node" transform="translate(683.577392578125,539.0729370117188)" id="Tree_1_node_1436"><circle class="node" r="3"/><rect class="node" y="-3px" x="-3px" width="0px" height="0px"/><text class="node" x="13" dy=".3em" dx="-.3em" text-anchor="start" font-size="14px" style="fill-opacity: 1;">MUSAM22433</text><text class="triangleText" dy=".35em" font-size="14px"/><path class="triangle" d="M0,0L0,0L0,0L0,0"/></g><g class="node" transform="translate(683.5765991210938,546.75)" id="Tree_1_node_1438"><circle class="node" r="3"/><rect class="node" y="-3px" x="-3px" width="0px" height="0px"/><text class="node" x="-13" dy="-.3em" dx=".3em" text-anchor="end" font-size="14px" style="fill-opacity: 1;"/><text class="triangleText" dy=".35em" font-size="14px" x="0"/><path class="triangle" d="M0,0L0,0L0,0L0,0"/></g><g class="node" transform="translate(641.8145141601562,523.71875)" id="Tree_1_node_1434"><circle class="node" r="3"/><rect class="node" y="-3px" x="-3px" width="0px" height="0px"/><text class="node" x="13" dy=".3em" dx="-.3em" text-anchor="start" font-size="14px" style="fill-opacity: 1;">MUSAC26277</text><text class="triangleText" dy=".35em" font-size="14px"/><path class="triangle" d="M0,0L0,0L0,0L0,0"/></g><g class="node" transform="translate(641.8145141601562,508.3645935058594)" id="Tree_1_node_1433"><circle class="node" r="3"/><rect class="node" y="-3px" x="-3px" width="0px" height="0px"/><text class="node" x="13" dy=".3em" dx="-.3em" text-anchor="start" font-size="14px" style="fill-opacity: 1;">MUSAM33416</text><text class="triangleText" dy=".35em" font-size="14px"/><path class="triangle" d="M0,0L0,0L0,0L0,0"/></g><g class="node" transform="translate(641.8137817382812,516.0416870117188)" id="Tree_1_node_1435"><circle class="node" r="3"/><rect class="node" y="-3px" x="-3px" width="0px" height="0px"/><text class="node" x="-13" dy="-.3em" dx=".3em" text-anchor="end" font-size="14px" style="fill-opacity: 1;"/><text class="triangleText" dy=".35em" font-size="14px" x="0"/><path class="triangle" d="M0,0L0,0L0,0L0,0"/></g><g class="node" transform="translate(601.9192504882812,531.3958129882812)" id="Tree_1_node_1439"><circle class="node" r="3"/><rect class="node" y="-3px" x="-3px" width="0px" height="0px"/><text class="node" x="-13" dy="-.3em" dx=".3em" text-anchor="end" font-size="14px" style="fill-opacity: 1;"/><text class="triangleText" dy=".35em" font-size="14px" x="0"/><path class="triangle" d="M0,0L0,0L0,0L0,0"/></g><g class="node" transform="translate(515.0259399414062,574.5794067382812)" id="Tree_1_node_1465"><circle class="node" r="3"/><rect class="node" y="-3px" x="-3px" width="0px" height="0px"/><text class="node" x="-13" dy="-.3em" dx=".3em" text-anchor="end" font-size="14px" style="fill-opacity: 1;"/><text class="triangleText" dy=".35em" font-size="14px" x="0"/><path class="triangle" d="M0,0L0,0L0,0L0,0"/></g><g class="node" transform="translate(1208.893310546875,493.0104064941406)" id="Tree_1_node_1428"><circle class="node" r="3"/><rect class="node" y="-3px" x="-3px" width="0px" height="0px"/><text class="node" x="13" dy=".3em" dx="-.3em" text-anchor="start" font-size="14px" style="fill-opacity: 1;">SOLTU20866</text><text class="triangleText" dy=".35em" font-size="14px"/><path class="triangle" d="M0,0L0,0L0,0L0,0"/></g><g class="node" transform="translate(1218.2236328125,477.65625)" id="Tree_1_node_1427"><circle class="node" r="3"/><rect class="node" y="-3px" x="-3px" width="0px" height="0px"/><text class="node" x="13" dy=".3em" dx="-.3em" text-anchor="start" font-size="14px" style="fill-opacity: 1;">SOLLC19172</text><text class="triangleText" dy=".35em" font-size="14px"/><path class="triangle" d="M0,0L0,0L0,0L0,0"/></g><g class="node" transform="translate(1188.849853515625,485.3333435058594)" id="Tree_1_node_1429"><circle class="node" r="3"/><rect class="node" y="-3px" x="-3px" width="0px" height="0px"/><text class="node" x="-13" dy="-.3em" dx=".3em" text-anchor="end" font-size="14px" style="fill-opacity: 1;"/><text class="triangleText" dy=".35em" font-size="14px" x="0"/><path class="triangle" d="M0,0L0,0L0,0L0,0"/></g><g class="node" transform="translate(983.3681030273438,462.3020935058594)" id="Tree_1_node_1426"><circle class="node" r="3"/><rect class="node" y="-3px" x="-3px" width="0px" height="0px"/><text class="node" x="13" dy=".3em" dx="-.3em" text-anchor="start" font-size="14px" style="fill-opacity: 1;">VITVI01671</text><text class="triangleText" dy=".35em" font-size="14px"/><path class="triangle" d="M0,0L0,0L0,0L0,0"/></g><g class="node" transform="translate(808.0762939453125,473.8177185058594)" id="Tree_1_node_1430"><circle class="node" r="3"/><rect class="node" y="-3px" x="-3px" width="0px" height="0px"/><text class="node" x="-13" dy="-.3em" dx=".3em" text-anchor="end" font-size="14px" style="fill-opacity: 1;"/><text class="triangleText" dy=".35em" font-size="14px" x="0"/><path class="triangle" d="M0,0L0,0L0,0L0,0"/></g><g class="node" transform="translate(971.1976928710938,446.9479064941406)" id="Tree_1_node_1424"><circle class="node" r="3"/><rect class="node" y="-3px" x="-3px" width="0px" height="0px"/><text class="node" x="13" dy=".3em" dx="-.3em" text-anchor="start" font-size="14px" style="fill-opacity: 1;">MUSAC12503</text><text class="triangleText" dy=".35em" font-size="14px"/><path class="triangle" d="M0,0L0,0L0,0L0,0"/></g><g class="node" transform="translate(971.1976928710938,431.59375)" id="Tree_1_node_1423"><circle class="node" r="3"/><rect class="node" y="-3px" x="-3px" width="0px" height="0px"/><text class="node" x="13" dy=".3em" dx="-.3em" text-anchor="start" font-size="14px" style="fill-opacity: 1;">MUSAM19491</text><text class="triangleText" dy=".35em" font-size="14px"/><path class="triangle" d="M0,0L0,0L0,0L0,0"/></g><g class="node" transform="translate(971.1968994140625,439.2708435058594)" id="Tree_1_node_1425"><circle class="node" r="3"/><rect class="node" y="-3px" x="-3px" width="0px" height="0px"/><text class="node" x="-13" dy="-.3em" dx=".3em" text-anchor="end" font-size="14px" style="fill-opacity: 1;"/><text class="triangleText" dy=".35em" font-size="14px" x="0"/><path class="triangle" d="M0,0L0,0L0,0L0,0"/></g><g class="node" transform="translate(726.1692504882812,456.5442810058594)" id="Tree_1_node_1431"><circle class="node" r="3"/><rect class="node" y="-3px" x="-3px" width="0px" height="0px"/><text class="node" x="-13" dy="-.3em" dx=".3em" text-anchor="end" font-size="14px" style="fill-opacity: 1;"/><text class="triangleText" dy=".35em" font-size="14px" x="0"/><path class="triangle" d="M0,0L0,0L0,0L0,0"/></g><g class="node" transform="translate(1262.7957763671875,416.2395935058594)" id="Tree_1_node_1419"><circle class="node" r="3"/><rect class="node" y="-3px" x="-3px" width="0px" height="0px"/><text class="node" x="13" dy=".3em" dx="-.3em" text-anchor="start" font-size="14px" style="fill-opacity: 1;">SELML01125</text><text class="triangleText" dy=".35em" font-size="14px"/><path class="triangle" d="M0,0L0,0L0,0L0,0"/></g><g class="node" transform="translate(1271.0576171875,400.8854064941406)" id="Tree_1_node_1418"><circle class="node" r="3"/><rect class="node" y="-3px" x="-3px" width="0px" height="0px"/><text class="node" x="13" dy=".3em" dx="-.3em" text-anchor="start" font-size="14px" style="fill-opacity: 1;">SELML17821</text><text class="triangleText" dy=".35em" font-size="14px"/><path class="triangle" d="M0,0L0,0L0,0L0,0"/></g><g class="node" transform="translate(1256.2276611328125,408.5625)" id="Tree_1_node_1420"><circle class="node" r="3"/><rect class="node" y="-3px" x="-3px" width="0px" height="0px"/><text class="node" x="-13" dy="-.3em" dx=".3em" text-anchor="end" font-size="14px" style="fill-opacity: 1;"/><text class="triangleText" dy=".35em" font-size="14px" x="0"/><path class="triangle" d="M0,0L0,0L0,0L0,0"/></g><g class="node" transform="translate(973.7987670898438,317.7083435058594)" id="Tree_1_node_1416"><circle class="node" r="3"/><rect class="node" y="-3px" x="-3px" width="0px" height="0px"/><text class="node" x="-13" dy="-.3em" dx=".3em" text-anchor="end" font-size="14px" style="fill-opacity: 1;"/><text class="triangleText" dy=".35em" font-size="14px" x="143.2027592320491">MANES21353 ... PHYPA09708</text><path class="triangle" d="M0,0L138.2027592320491,-74.5L138.2027592320491,74.5L0,0"/></g><g class="node" transform="translate(980.7955322265625,228.5833282470703)" id="Tree_1_node_225"><circle class="node" r="3"/><rect class="node" y="-3px" x="-3px" width="0px" height="0px"/><text class="node" x="-13" dy="-.3em" dx=".3em" text-anchor="end" font-size="14px" style="fill-opacity: 1;"/><text class="triangleText" dy=".35em" font-size="14px" x="195.74653044220102">MUSAM01035 ... PHYPA09854</text><path class="triangle" d="M0,0L190.74653044220102,-12.625L190.74653044220102,12.625L0,0"/></g><g class="node" transform="translate(905.64599609375,273.1458435058594)" id="Tree_1_node_1417"><circle class="node" r="3"/><rect class="node" y="-3px" x="-3px" width="0px" height="0px"/><text class="node" x="-13" dy="-.3em" dx=".3em" text-anchor="end" font-size="14px" style="fill-opacity: 1;"/><text class="triangleText" dy=".35em" font-size="14px" x="0"/><path class="triangle" d="M0,0L0,0L0,0L0,0"/></g><g class="node" transform="translate(851.0606689453125,340.8541564941406)" id="Tree_1_node_1421"><circle class="node" r="3"/><rect class="node" y="-3px" x="-3px" width="0px" height="0px"/><text class="node" x="-13" dy="-.3em" dx=".3em" text-anchor="end" font-size="14px" style="fill-opacity: 1;"/><text class="triangleText" dy=".35em" font-size="14px" x="0"/><path class="triangle" d="M0,0L0,0L0,0L0,0"/></g><g class="node" transform="translate(1354.015380859375,207.28125)" id="Tree_1_node_23"><circle class="node" r="3"/><rect class="node" y="-3px" x="-3px" width="0px" height="0px"/><text class="node" x="13" dy=".3em" dx="-.3em" text-anchor="start" font-size="14px" style="fill-opacity: 1;">SELML05537</text><text class="triangleText" dy=".35em" font-size="14px"/><path class="triangle" d="M0,0L0,0L0,0L0,0"/></g><g class="node" transform="translate(1346.846923828125,191.9270782470703)" id="Tree_1_node_22"><circle class="node" r="3"/><rect class="node" y="-3px" x="-3px" width="0px" height="0px"/><text class="node" x="13" dy=".3em" dx="-.3em" text-anchor="start" font-size="14px" style="fill-opacity: 1;">SELML14800</text><text class="triangleText" dy=".35em" font-size="14px"/><path class="triangle" d="M0,0L0,0L0,0L0,0"/></g><g class="node" transform="translate(1338.6881103515625,199.6041717529297)" id="Tree_1_node_24"><circle class="node" r="3"/><rect class="node" y="-3px" x="-3px" width="0px" height="0px"/><text class="node" x="-13" dy="-.3em" dx=".3em" text-anchor="end" font-size="14px" style="fill-opacity: 1;"/><text class="triangleText" dy=".35em" font-size="14px" x="0"/><path class="triangle" d="M0,0L0,0L0,0L0,0"/></g><g class="node" transform="translate(786.4953002929688,270.2291564941406)" id="Tree_1_node_1422"><circle class="node" r="3"/><rect class="node" y="-3px" x="-3px" width="0px" height="0px"/><text class="node" x="-13" dy="-.3em" dx=".3em" text-anchor="end" font-size="14px" style="fill-opacity: 1;"/><text class="triangleText" dy=".35em" font-size="14px" x="0"/><path class="triangle" d="M0,0L0,0L0,0L0,0"/></g><g class="node" transform="translate(473.5583190917969,363.38671875)" id="Tree_1_node_1432"><circle class="node" r="3"/><rect class="node" y="-3px" x="-3px" width="0px" height="0px"/><text class="node" x="-13" dy="-.3em" dx=".3em" text-anchor="end" font-size="14px" style="fill-opacity: 1;"/><text class="triangleText" dy=".35em" font-size="14px" x="0"/><path class="triangle" d="M0,0L0,0L0,0L0,0"/></g><g class="node" transform="translate(341.3768005371094,468.9830627441406)" id="Tree_1_node_1466"><circle class="node" r="3"/><rect class="node" y="-3px" x="-3px" width="0px" height="0px"/><text class="node" x="-13" dy="-.3em" dx=".3em" text-anchor="end" font-size="14px" style="fill-opacity: 1;"/><text class="triangleText" dy=".35em" font-size="14px" x="0"/><path class="triangle" d="M0,0L0,0L0,0L0,0"/></g><g class="node" transform="translate(378.9853820800781,176.5729217529297)" id="Tree_1_node_17"><circle class="node" r="3"/><rect class="node" y="-3px" x="-3px" width="0px" height="0px"/><text class="node" x="13" dy=".3em" dx="-.3em" text-anchor="start" font-size="14px" style="fill-opacity: 1;">MANES09113</text><text class="triangleText" dy=".35em" font-size="14px"/><path class="triangle" d="M0,0L0,0L0,0L0,0"/></g><g class="node" transform="translate(382.40777587890625,161.21875)" id="Tree_1_node_16"><circle class="node" r="3"/><rect class="node" y="-3px" x="-3px" width="0px" height="0px"/><text class="node" x="13" dy=".3em" dx="-.3em" text-anchor="start" font-size="14px" style="fill-opacity: 1;">MANES09114</text><text class="triangleText" dy=".35em" font-size="14px"/><path class="triangle" d="M0,0L0,0L0,0L0,0"/></g><g class="node" transform="translate(378.984619140625,168.8958282470703)" id="Tree_1_node_18"><circle class="node" r="3"/><rect class="node" y="-3px" x="-3px" width="0px" height="0px"/><text class="node" x="-13" dy="-.3em" dx=".3em" text-anchor="end" font-size="14px" style="fill-opacity: 1;"/><text class="triangleText" dy=".35em" font-size="14px" x="0"/><path class="triangle" d="M0,0L0,0L0,0L0,0"/></g><g class="node" transform="translate(409.5853576660156,145.8645782470703)" id="Tree_1_node_15"><circle class="node" r="3"/><rect class="node" y="-3px" x="-3px" width="0px" height="0px"/><text class="node" x="13" dy=".3em" dx="-.3em" text-anchor="start" font-size="14px" style="fill-opacity: 1;">VITVI16878</text><text class="triangleText" dy=".35em" font-size="14px"/><path class="triangle" d="M0,0L0,0L0,0L0,0"/></g><g class="node" transform="translate(296.6131896972656,157.3802032470703)" id="Tree_1_node_19"><circle class="node" r="3"/><rect class="node" y="-3px" x="-3px" width="0px" height="0px"/><text class="node" x="-13" dy="-.3em" dx=".3em" text-anchor="end" font-size="14px" style="fill-opacity: 1;"/><text class="triangleText" dy=".35em" font-size="14px" x="0"/><path class="triangle" d="M0,0L0,0L0,0L0,0"/></g><g class="node" transform="translate(313.7927551269531,130.5104217529297)" id="Tree_1_node_13"><circle class="node" r="3"/><rect class="node" y="-3px" x="-3px" width="0px" height="0px"/><text class="node" x="13" dy=".3em" dx="-.3em" text-anchor="start" font-size="14px" style="fill-opacity: 1;">POPTR15493</text><text class="triangleText" dy=".35em" font-size="14px"/><path class="triangle" d="M0,0L0,0L0,0L0,0"/></g><g class="node" transform="translate(352.2218322753906,115.15625)" id="Tree_1_node_12"><circle class="node" r="3"/><rect class="node" y="-3px" x="-3px" width="0px" height="0px"/><text class="node" x="13" dy=".3em" dx="-.3em" text-anchor="start" font-size="14px" style="fill-opacity: 1;">POPTR14057</text><text class="triangleText" dy=".35em" font-size="14px"/><path class="triangle" d="M0,0L0,0L0,0L0,0"/></g><g class="node" transform="translate(288.3306579589844,122.83333587646484)" id="Tree_1_node_14"><circle class="node" r="3"/><rect class="node" y="-3px" x="-3px" width="0px" height="0px"/><text class="node" x="-13" dy="-.3em" dx=".3em" text-anchor="end" font-size="14px" style="fill-opacity: 1;"/><text class="triangleText" dy=".35em" font-size="14px" x="0"/><path class="triangle" d="M0,0L0,0L0,0L0,0"/></g><g class="node" transform="translate(251.48362731933594,140.1067657470703)" id="Tree_1_node_20"><circle class="node" r="3"/><rect class="node" y="-3px" x="-3px" width="0px" height="0px"/><text class="node" x="-13" dy="-.3em" dx=".3em" text-anchor="end" font-size="14px" style="fill-opacity: 1;"/><text class="triangleText" dy=".35em" font-size="14px" x="0"/><path class="triangle" d="M0,0L0,0L0,0L0,0"/></g><g class="node" transform="translate(412.1406555175781,99.80208587646484)" id="Tree_1_node_9"><circle class="node" r="3"/><rect class="node" y="-3px" x="-3px" width="0px" height="0px"/><text class="node" x="13" dy=".3em" dx="-.3em" text-anchor="start" font-size="14px" style="fill-opacity: 1;">SOYBN06011</text><text class="triangleText" dy=".35em" font-size="14px"/><path class="triangle" d="M0,0L0,0L0,0L0,0"/></g><g class="node" transform="translate(436.8890075683594,84.44791412353516)" id="Tree_1_node_8"><circle class="node" r="3"/><rect class="node" y="-3px" x="-3px" width="0px" height="0px"/><text class="node" x="13" dy=".3em" dx="-.3em" text-anchor="start" font-size="14px" style="fill-opacity: 1;">SOYBN40305</text><text class="triangleText" dy=".35em" font-size="14px"/><path class="triangle" d="M0,0L0,0L0,0L0,0"/></g><g class="node" transform="translate(398.0966491699219,92.125)" id="Tree_1_node_10"><circle class="node" r="3"/><rect class="node" y="-3px" x="-3px" width="0px" height="0px"/><text class="node" x="-13" dy="-.3em" dx=".3em" text-anchor="end" font-size="14px" style="fill-opacity: 1;"/><text class="triangleText" dy=".35em" font-size="14px" x="0"/><path class="triangle" d="M0,0L0,0L0,0L0,0"/></g><g class="node" transform="translate(365.46044921875,69.09375)" id="Tree_1_node_5"><circle class="node" r="3"/><rect class="node" y="-3px" x="-3px" width="0px" height="0px"/><text class="node" x="13" dy=".3em" dx="-.3em" text-anchor="start" font-size="14px" style="fill-opacity: 1;">SOYBN15364</text><text class="triangleText" dy=".35em" font-size="14px"/><path class="triangle" d="M0,0L0,0L0,0L0,0"/></g><g class="node" transform="translate(377.47332763671875,53.73958206176758)" id="Tree_1_node_4"><circle class="node" r="3"/><rect class="node" y="-3px" x="-3px" width="0px" height="0px"/><text class="node" x="13" dy=".3em" dx="-.3em" text-anchor="start" font-size="14px" style="fill-opacity: 1;">SOYBN06937</text><text class="triangleText" dy=".35em" font-size="14px"/><path class="triangle" d="M0,0L0,0L0,0L0,0"/></g><g class="node" transform="translate(358.4608154296875,61.41666793823242)" id="Tree_1_node_6"><circle class="node" r="3"/><rect class="node" y="-3px" x="-3px" width="0px" height="0px"/><text class="node" x="-13" dy="-.3em" dx=".3em" text-anchor="end" font-size="14px" style="fill-opacity: 1;"/><text class="triangleText" dy=".35em" font-size="14px" x="0"/><path class="triangle" d="M0,0L0,0L0,0L0,0"/></g><g class="node" transform="translate(451.4557800292969,38.38541793823242)" id="Tree_1_node_3"><circle class="node" r="3"/><rect class="node" y="-3px" x="-3px" width="0px" height="0px"/><text class="node" x="13" dy=".3em" dx="-.3em" text-anchor="start" font-size="14px" style="fill-opacity: 1;">MEDTR17610</text><text class="triangleText" dy=".35em" font-size="14px"/><path class="triangle" d="M0,0L0,0L0,0L0,0"/></g><g class="node" transform="translate(333.36383056640625,49.90104293823242)" id="Tree_1_node_7"><circle class="node" r="3"/><rect class="node" y="-3px" x="-3px" width="0px" height="0px"/><text class="node" x="-13" dy="-.3em" dx=".3em" text-anchor="end" font-size="14px" style="fill-opacity: 1;"/><text class="triangleText" dy=".35em" font-size="14px" x="0"/><path class="triangle" d="M0,0L0,0L0,0L0,0"/></g><g class="node" transform="translate(298.4298095703125,71.01302337646484)" id="Tree_1_node_11"><circle class="node" r="3"/><rect class="node" y="-3px" x="-3px" width="0px" height="0px"/><text class="node" x="-13" dy="-.3em" dx=".3em" text-anchor="end" font-size="14px" style="fill-opacity: 1;"/><text class="triangleText" dy=".35em" font-size="14px" x="0"/><path class="triangle" d="M0,0L0,0L0,0L0,0"/></g><g class="node" transform="translate(226.47425842285156,105.55989837646484)" id="Tree_1_node_21"><circle class="node" r="3"/><rect class="node" y="-3px" x="-3px" width="0px" height="0px"/><text class="node" x="-13" dy="-.3em" dx=".3em" text-anchor="end" font-size="14px" style="fill-opacity: 1;"/><text class="triangleText" dy=".35em" font-size="14px" x="0"/><path class="triangle" d="M0,0L0,0L0,0L0,0"/></g><g class="node" transform="translate(195.1411895751953,287.271484375)" id="Tree_1_node_1467"><circle class="node" r="3"/><rect class="node" y="-3px" x="-3px" width="0px" height="0px"/><text class="node" x="-13" dy="-.3em" dx=".3em" text-anchor="end" font-size="14px" style="fill-opacity: 1;"/><text class="triangleText" dy=".35em" font-size="14px" x="0"/><path class="triangle" d="M0,0L0,0L0,0L0,0"/></g><g class="node" transform="translate(303.9862060546875,23.03125)" id="Tree_1_node_1"><circle class="node" r="3"/><rect class="node" y="-3px" x="-3px" width="0px" height="0px"/><text class="node" x="13" dy=".3em" dx="-.3em" text-anchor="start" font-size="14px" style="fill-opacity: 1;">SOLLC24463</text><text class="triangleText" dy=".35em" font-size="14px"/><path class="triangle" d="M0,0L0,0L0,0L0,0"/></g><g class="node" transform="translate(315.4049377441406,7.677083492279053)" id="Tree_1_node_0"><circle class="node" r="3"/><rect class="node" y="-3px" x="-3px" width="0px" height="0px"/><text class="node" x="13" dy=".3em" dx="-.3em" text-anchor="start" font-size="14px" style="fill-opacity: 1;">SOLTU34696</text><text class="triangleText" dy=".35em" font-size="14px"/><path class="triangle" d="M0,0L0,0L0,0L0,0"/></g><g class="node" transform="translate(298.6527404785156,15.354166984558105)" id="Tree_1_node_2"><circle class="node" r="3"/><rect class="node" y="-3px" x="-3px" width="0px" height="0px"/><text class="node" x="-13" dy="-.3em" dx=".3em" text-anchor="end" font-size="14px" style="fill-opacity: 1;"/><text class="triangleText" dy=".35em" font-size="14px" x="0"/><path class="triangle" d="M0,0L0,0L0,0L0,0"/></g><g class="node" transform="translate(160.2122039794922,151.3128204345703)" id="Tree_1_node_1468"><circle class="node" r="3"/><rect class="node" y="-3px" x="-3px" width="0px" height="0px"/><text class="node" x="-13" dy="-.3em" dx=".3em" text-anchor="end" font-size="14px" style="fill-opacity: 1;"/><text class="triangleText" dy=".35em" font-size="14px" x="0"/><path class="triangle" d="M0,0L0,0L0,0L0,0"/></g><g class="node" transform="translate(-90,421.9637145996094)" id="Tree_1_node_1471"><circle class="node" r="3"/><rect class="node" y="-3px" x="-3px" width="0px" height="0px"/><text class="node" x="-13" dy="-.3em" dx=".3em" text-anchor="end" font-size="14px" style="fill-opacity: 1;"/><text class="triangleText" dy=".35em" font-size="14px" x="0"/><path class="triangle" d="M0,0L0,0L0,0L0,0"/></g></g><g transform="translate(100,1234)"><path d="M10,20L545,20" stroke-width="1" stroke="black"/></g><text transform="translate(100,1234)" x="277.5" y="35" font-family="sans-serif" font-size="14px" fill="black" text-anchor="middle">0.5</text></svg>